<?xml version="1.0" encoding="UTF-8" standalone="no"?>
<!DOCTYPE svg PUBLIC "-//W3C//DTD SVG 1.1//EN" "http://www.w3.org/Graphics/SVG/1.1/DTD/svg11.dtd">
<svg width="100%" height="100%" viewBox="0 0 1181 250" version="1.1" xmlns="http://www.w3.org/2000/svg" xmlns:xlink="http://www.w3.org/1999/xlink" xml:space="preserve" xmlns:serif="http://www.serif.com/" style="fill-rule:evenodd;clip-rule:evenodd;stroke-linejoin:round;stroke-miterlimit:2;">
    <g transform="matrix(4.166667,0,0,4.166667,-1490.3375,-3309.895833)">
        <g transform="matrix(1,0,0,1,0,516.977)">
            <rect x="421.052" y="336.481" width="219.959" height="0.611" style="fill:rgb(35,31,32);"/>
        </g>
        <g transform="matrix(1,0,0,1,638.1875,835.1286)">
            <path d="M0,10.398C0,10.695 -0.021,10.95 -0.36,11.289C-0.912,11.84 -1.761,12.202 -2.44,12.202C-3.586,12.202 -4.286,11.48 -4.286,10.228C-4.286,8.594 -2.991,8.212 0,7.724L0,10.398ZM2.822,12.52L2.737,12.117C2.61,12.138 2.483,12.138 2.377,12.138C1.592,12.138 1.465,11.755 1.465,10.758L1.465,10.185L1.55,6.642L1.55,6.387C1.55,4.032 0.637,2.907 -1.719,2.907C-3.013,2.907 -4.18,3.31 -5.071,4.075L-5.113,5.157L-4.943,5.157C-4.308,4.18 -3.416,3.692 -2.271,3.692C-0.594,3.692 0.043,4.584 0.043,6.409L0.043,6.854C-0.488,7.321 -1.74,7.406 -3.564,7.788C-5.198,8.149 -5.983,9.018 -5.983,10.503C-5.983,12.117 -4.965,13.053 -3.119,13.053C-1.931,13.053 -0.891,12.562 -0.021,11.65C0.106,12.477 0.403,12.859 1.125,12.859C1.719,12.859 2.25,12.689 2.822,12.52M-6.747,12.863C-8.615,10.652 -10.249,8.76 -11.628,7.148L-9.761,5.382C-8.637,4.322 -7.767,3.537 -7.065,3.07C-7.363,3.112 -7.682,3.133 -7.979,3.133C-8.275,3.133 -8.572,3.112 -8.891,3.07C-11.161,5.96 -12.838,7.296 -13.22,7.296C-13.453,7.296 -13.56,7.169 -13.56,6.935L-13.56,6.235C-13.56,3.643 -13.538,0.682 -13.453,-2.677C-13.729,-2.635 -14.026,-2.592 -14.323,-2.592C-14.599,-2.592 -14.896,-2.635 -15.193,-2.677C-15.108,-0.057 -15.087,2.522 -15.087,5.064C-15.087,7.062 -15.108,9.652 -15.193,12.863C-14.896,12.795 -14.599,12.753 -14.323,12.753C-14.026,12.753 -13.729,12.795 -13.453,12.863C-13.56,11.247 -13.56,9.995 -13.56,9.164L-13.56,7.997C-13.56,7.805 -13.56,7.72 -13.368,7.72C-13.05,7.72 -11.543,9.397 -8.976,12.863C-8.637,12.795 -8.275,12.774 -7.915,12.774C-7.533,12.774 -7.13,12.795 -6.747,12.863M-17.294,9.783C-17.294,8.488 -17.931,7.809 -19.288,7.406L-20.71,6.981C-21.771,6.664 -22.28,6.197 -22.28,5.242C-22.28,4.202 -21.56,3.502 -20.52,3.502C-19.691,3.502 -18.906,3.968 -18.121,4.88C-18.036,4.435 -17.888,4.01 -17.676,3.565C-18.376,3.14 -19.268,2.886 -20.265,2.886C-22.217,2.886 -23.447,4.095 -23.447,5.751C-23.447,7.214 -22.769,7.979 -21.198,8.424L-20.243,8.7C-19.14,8.998 -18.609,9.421 -18.609,10.398C-18.609,11.565 -19.395,12.287 -20.625,12.287C-21.623,12.287 -22.472,11.755 -23.15,10.695C-23.277,11.225 -23.447,11.755 -23.66,12.307C-22.938,12.795 -22.005,13.053 -20.965,13.053C-18.758,13.053 -17.294,11.628 -17.294,9.783M-24.19,3.07C-24.381,3.091 -24.594,3.112 -24.806,3.112C-25.018,3.112 -25.209,3.091 -25.442,3.07C-26.736,6.872 -27.734,9.397 -28.328,10.631C-28.986,9.291 -29.92,6.765 -30.917,3.07C-31.129,3.112 -31.342,3.133 -31.532,3.133C-31.724,3.133 -31.936,3.112 -32.147,3.07C-32.933,5.832 -33.824,8.357 -34.864,10.652C-36.243,7.105 -37.092,4.577 -37.453,3.07C-37.771,3.133 -38.089,3.155 -38.387,3.155C-38.705,3.155 -39.002,3.133 -39.299,3.07C-37.304,7.912 -36.095,11.183 -35.691,12.863C-35.479,12.817 -35.31,12.817 -35.098,12.817C-34.906,12.817 -34.694,12.817 -34.503,12.863C-34.079,11.077 -33.229,8.569 -31.894,5.362C-30.302,9.609 -29.474,12.095 -29.347,12.863C-29.135,12.817 -28.943,12.795 -28.753,12.795C-28.54,12.795 -28.328,12.817 -28.116,12.863C-27.606,10.928 -26.228,7.699 -24.19,3.07M-42.736,10.398C-42.736,10.695 -42.758,10.95 -43.098,11.289C-43.648,11.84 -44.498,12.202 -45.177,12.202C-46.322,12.202 -47.023,11.48 -47.023,10.228C-47.023,8.594 -45.729,8.212 -42.736,7.724L-42.736,10.398ZM-39.914,12.52L-39.999,12.117C-40.127,12.138 -40.254,12.138 -40.36,12.138C-41.146,12.138 -41.272,11.755 -41.272,10.758L-41.272,10.185L-41.188,6.642L-41.188,6.387C-41.188,4.032 -42.1,2.907 -44.455,2.907C-45.75,2.907 -46.917,3.31 -47.809,4.075L-47.851,5.157L-47.681,5.157C-47.044,4.18 -46.153,3.692 -45.007,3.692C-43.331,3.692 -42.694,4.584 -42.694,6.409L-42.694,6.854C-43.225,7.321 -44.477,7.406 -46.302,7.788C-47.936,8.149 -48.721,9.018 -48.721,10.503C-48.721,12.117 -47.702,13.053 -45.856,13.053C-44.667,13.053 -43.628,12.562 -42.758,11.65C-42.631,12.477 -42.333,12.859 -41.611,12.859C-41.018,12.859 -40.487,12.689 -39.914,12.52M-49.696,2.621L-49.696,1.521C-49.994,1.775 -50.481,2.197 -51.203,2.706L-51.203,2.472C-51.203,0.502 -51.161,-1.362 -51.098,-2.677C-51.373,-2.656 -51.691,-2.635 -51.988,-2.635C-52.243,-2.635 -52.54,-2.656 -52.816,-2.677C-52.731,-0.962 -52.71,0.99 -52.71,3.194L-52.71,3.746C-53.325,4.169 -53.516,4.297 -54.152,4.679L-54.152,5.757C-53.262,5.037 -52.816,4.658 -52.731,4.616L-52.731,7.625C-52.731,9.914 -52.773,11.65 -52.816,12.863C-52.54,12.817 -52.265,12.795 -51.988,12.795C-51.691,12.795 -51.395,12.817 -51.098,12.863C-51.161,11.544 -51.203,8.555 -51.203,3.576C-50.566,3.172 -50.396,3.045 -49.696,2.621M-54.811,3.713C-55.893,3.162 -57.018,2.886 -58.185,2.886C-61.283,2.886 -63.341,4.902 -63.341,7.979C-63.341,11.077 -61.367,13.075 -58.481,13.075C-57.018,13.075 -55.871,12.753 -54.938,12.032C-54.959,11.905 -54.959,11.755 -54.959,11.607C-54.959,11.395 -54.938,11.14 -54.917,10.843C-55.914,11.862 -56.891,12.35 -58.057,12.35C-60.2,12.35 -61.664,10.695 -61.664,7.958C-61.664,5.135 -60.37,3.544 -58.185,3.544C-56.891,3.544 -55.956,4.18 -55.362,5.496C-55.235,4.838 -55.044,4.223 -54.811,3.713M-66.566,8.085C-66.566,10.928 -67.67,12.414 -69.707,12.414C-71.766,12.414 -72.869,10.885 -72.869,7.936C-72.869,5.008 -71.766,3.502 -69.728,3.502C-67.67,3.502 -66.566,5.072 -66.566,8.085M-64.784,7.958C-64.784,4.944 -66.821,2.886 -69.707,2.886C-72.508,2.886 -74.63,4.944 -74.63,7.958C-74.63,10.992 -72.571,13.053 -69.707,13.053C-66.885,13.053 -64.784,11.055 -64.784,7.958M-75.605,3.077C-75.945,3.013 -76.2,2.97 -76.391,2.97C-77.409,2.97 -78.237,3.777 -78.979,5.347C-78.979,4.499 -78.938,3.735 -78.874,3.077C-79.149,3.14 -79.447,3.162 -79.744,3.162C-80.02,3.162 -80.316,3.14 -80.635,3.077C-80.55,3.968 -80.529,4.965 -80.529,6.069C-80.529,9.103 -80.571,11.374 -80.635,12.837C-80.359,12.795 -80.104,12.774 -79.85,12.774C-79.553,12.774 -79.234,12.795 -78.938,12.863C-79.001,11.925 -79.043,10.525 -79.043,8.679C-79.043,5.857 -78.449,4.477 -76.879,4.477C-76.54,4.477 -76.222,4.562 -75.882,4.753L-75.712,4.647C-75.712,4.053 -75.691,3.502 -75.605,3.077M-81.399,-1.316C-81.633,-1.252 -81.866,-1.231 -82.1,-1.231C-82.333,-1.231 -82.545,-1.252 -82.757,-1.316C-83.797,2.738 -85.007,6.748 -86.364,10.673C-87.828,6.642 -89.145,2.631 -90.354,-1.316C-90.587,-1.252 -90.82,-1.231 -91.033,-1.231C-91.266,-1.231 -91.479,-1.252 -91.712,-1.316C-92.879,2.97 -94.194,7.024 -95.596,10.885C-96.953,6.684 -98.142,2.61 -99.203,-1.316C-99.521,-1.252 -99.86,-1.231 -100.179,-1.231C-100.519,-1.231 -100.857,-1.252 -101.176,-1.316C-99.563,3.735 -98.078,8.446 -96.741,12.863C-96.486,12.795 -96.253,12.753 -96.02,12.753C-95.765,12.753 -95.531,12.795 -95.298,12.863C-94.683,11.162 -93.409,7.299 -91.415,1.273C-89.993,5.22 -88.699,9.082 -87.596,12.884C-87.341,12.795 -87.107,12.774 -86.853,12.774C-86.598,12.774 -86.364,12.795 -86.131,12.863C-84.582,8.233 -83.033,3.522 -81.399,-1.316M-110.471,10.398C-110.471,10.695 -110.491,10.95 -110.831,11.289C-111.383,11.84 -112.231,12.202 -112.91,12.202C-114.057,12.202 -114.757,11.48 -114.757,10.228C-114.757,8.594 -113.462,8.212 -110.471,7.724L-110.471,10.398ZM-107.648,12.52L-107.732,12.117C-107.86,12.138 -107.987,12.138 -108.094,12.138C-108.879,12.138 -109.006,11.755 -109.006,10.758L-109.006,10.185L-108.921,6.642L-108.921,6.387C-108.921,4.032 -109.834,2.907 -112.189,2.907C-113.483,2.907 -114.65,3.31 -115.542,4.075L-115.584,5.157L-115.414,5.157C-114.777,4.18 -113.887,3.692 -112.741,3.692C-111.064,3.692 -110.428,4.584 -110.428,6.409L-110.428,6.854C-110.958,7.321 -112.211,7.406 -114.035,7.788C-115.669,8.149 -116.454,9.018 -116.454,10.503C-116.454,12.117 -115.436,13.053 -113.59,13.053C-112.401,13.053 -111.361,12.562 -110.491,11.65C-110.364,12.477 -110.067,12.859 -109.346,12.859C-108.752,12.859 -108.221,12.689 -107.648,12.52M-117.218,12.863C-119.086,10.652 -120.72,8.76 -122.099,7.148L-120.231,5.382C-119.107,4.322 -118.236,3.537 -117.536,3.07C-117.834,3.112 -118.152,3.133 -118.449,3.133C-118.746,3.133 -119.043,3.112 -119.361,3.07C-121.632,5.96 -123.309,7.296 -123.69,7.296C-123.924,7.296 -124.029,7.169 -124.029,6.935L-124.029,6.235C-124.029,3.643 -124.009,0.682 -123.924,-2.677C-124.199,-2.635 -124.497,-2.592 -124.794,-2.592C-125.069,-2.592 -125.366,-2.635 -125.664,-2.677C-125.579,-0.057 -125.558,2.522 -125.558,5.064C-125.558,7.062 -125.579,9.652 -125.664,12.863C-125.366,12.795 -125.069,12.753 -124.794,12.753C-124.497,12.753 -124.199,12.795 -123.924,12.863C-124.029,11.247 -124.029,9.995 -124.029,9.164L-124.029,7.997C-124.029,7.805 -124.029,7.72 -123.839,7.72C-123.521,7.72 -122.014,9.397 -119.446,12.863C-119.107,12.795 -118.746,12.774 -118.385,12.774C-118.004,12.774 -117.601,12.795 -117.218,12.863M-128.974,12.863C-129.037,11.162 -129.08,9.439 -129.08,7.72C-129.08,6.129 -129.037,4.597 -128.974,3.07C-129.229,3.133 -129.525,3.155 -129.822,3.155C-130.099,3.155 -130.375,3.133 -130.672,3.07C-130.607,4.577 -130.565,6.129 -130.565,7.72C-130.565,9.439 -130.607,11.162 -130.672,12.863C-130.375,12.795 -130.099,12.753 -129.822,12.753C-129.525,12.753 -129.229,12.795 -128.974,12.863M-128.762,-0.531C-128.762,-1.124 -129.229,-1.571 -129.822,-1.571C-130.396,-1.571 -130.884,-1.124 -130.884,-0.531C-130.884,0.043 -130.396,0.509 -129.822,0.509C-129.229,0.509 -128.762,0.043 -128.762,-0.531M-133.939,12.863C-133.982,11.692 -134.003,10.61 -134.003,9.591C-134.003,8.616 -133.961,7.596 -133.961,6.578C-133.961,4.095 -135.064,2.865 -137.271,2.865C-138.671,2.865 -139.732,3.522 -140.518,4.88C-140.518,4.626 -140.539,4.372 -140.539,4.117C-140.539,3.777 -140.518,3.438 -140.496,3.077C-140.751,3.14 -141.027,3.162 -141.324,3.162C-141.578,3.162 -141.876,3.14 -142.173,3.077C-142.088,4.542 -142.088,6.09 -142.088,7.788L-142.088,9.252C-142.088,10.503 -142.088,11.692 -142.173,12.863C-141.876,12.795 -141.6,12.753 -141.324,12.753C-141.027,12.753 -140.729,12.795 -140.454,12.863C-140.496,11.798 -140.496,10.525 -140.496,8.976L-140.496,8.043C-140.496,6.664 -140.454,5.624 -139.796,4.817C-139.329,4.202 -138.671,3.925 -137.865,3.925C-136.295,3.925 -135.51,4.944 -135.51,6.981C-135.51,9.443 -135.552,11.417 -135.637,12.863C-135.34,12.795 -135.064,12.753 -134.788,12.753C-134.513,12.753 -134.215,12.795 -133.939,12.863M-145.25,12.863C-145.292,11.48 -145.335,10.419 -145.335,9.676C-145.335,8.446 -145.271,7.384 -145.271,6.494C-145.271,4.095 -146.374,2.886 -148.581,2.886C-149.96,2.886 -150.915,3.459 -151.807,4.775C-151.807,3.777 -151.828,2.822 -151.828,1.934C-151.828,0.601 -151.807,-0.944 -151.764,-2.677C-152.019,-2.635 -152.316,-2.592 -152.613,-2.592C-152.867,-2.592 -153.165,-2.635 -153.482,-2.677C-153.419,-0.244 -153.377,2.335 -153.377,5.072C-153.377,6.514 -153.398,9.103 -153.482,12.863C-153.207,12.795 -152.931,12.753 -152.655,12.753C-152.358,12.753 -152.062,12.795 -151.785,12.863C-151.807,11.735 -151.828,10.928 -151.828,10.44L-151.828,8.955C-151.828,7.214 -151.785,6.005 -151.425,5.284C-150.957,4.392 -150.173,3.925 -149.196,3.925C-147.436,3.925 -146.841,5.008 -146.841,7.342C-146.841,8.721 -146.884,10.568 -146.947,12.863C-146.65,12.795 -146.374,12.753 -146.099,12.753C-145.802,12.753 -145.504,12.795 -145.25,12.863M-155.371,3.713C-156.453,3.162 -157.578,2.886 -158.745,2.886C-161.844,2.886 -163.902,4.902 -163.902,7.979C-163.902,11.077 -161.929,13.075 -159.043,13.075C-157.578,13.075 -156.433,12.753 -155.499,12.032C-155.52,11.905 -155.52,11.755 -155.52,11.607C-155.52,11.395 -155.499,11.14 -155.478,10.843C-156.475,11.862 -157.451,12.35 -158.618,12.35C-160.762,12.35 -162.226,10.695 -162.226,7.958C-162.226,5.135 -160.931,3.544 -158.745,3.544C-157.451,3.544 -156.518,4.18 -155.923,5.496C-155.796,4.838 -155.604,4.223 -155.371,3.713M-167.085,7.109L-172.538,7.109C-172.453,4.88 -171.223,3.502 -169.674,3.502C-168.082,3.502 -167.085,4.69 -167.085,6.769L-167.085,7.109ZM-165.408,7.384C-165.408,4.477 -166.957,2.865 -169.589,2.865C-172.475,2.865 -174.363,4.902 -174.363,7.979C-174.363,10.97 -172.39,13.053 -169.462,13.053C-168.188,13.053 -167.021,12.647 -165.938,11.862L-165.938,11.607C-165.938,11.374 -165.918,11.098 -165.896,10.822C-166.873,11.777 -167.892,12.222 -169.101,12.222C-171.35,12.222 -172.581,10.716 -172.581,7.894L-172.581,7.831L-165.43,7.831C-165.43,7.681 -165.408,7.533 -165.408,7.384M-174.745,12.372L-174.894,11.905C-175.488,12.202 -175.976,12.35 -176.337,12.35C-177.652,12.35 -178.076,11.544 -178.076,9.715C-178.076,7.827 -177.992,6.231 -177.992,4.916C-177.992,4.81 -177.971,4.449 -177.949,3.877C-177.737,3.855 -177.482,3.855 -177.207,3.855C-176.677,3.855 -176.04,3.877 -175.297,3.919L-175.297,3.749C-175.297,3.495 -175.275,3.26 -175.233,3.07C-176.272,3.155 -177.164,3.176 -177.928,3.176L-177.928,1.822C-177.928,1.609 -177.907,1.079 -177.864,0.191C-178.353,0.424 -178.904,0.594 -179.541,0.701C-179.52,1.249 -179.498,1.822 -179.498,2.433L-179.498,3.133C-179.923,3.133 -180.39,3.112 -180.814,3.07C-180.814,3.155 -180.793,3.26 -180.793,3.388C-180.793,3.558 -180.814,3.749 -180.835,3.94C-180.475,3.897 -180.114,3.877 -179.753,3.877L-179.541,3.877L-179.541,4.577C-179.541,7.296 -179.647,9.185 -179.647,10.224C-179.647,12.18 -178.926,13.075 -176.994,13.075C-176.209,13.075 -175.424,12.817 -174.745,12.372M-182.809,12.863C-182.872,11.162 -182.915,9.439 -182.915,7.72C-182.915,6.129 -182.872,4.597 -182.809,3.07C-183.063,3.133 -183.36,3.155 -183.657,3.155C-183.934,3.155 -184.209,3.133 -184.507,3.07C-184.442,4.577 -184.4,6.129 -184.4,7.72C-184.4,9.439 -184.442,11.162 -184.507,12.863C-184.209,12.795 -183.934,12.753 -183.657,12.753C-183.36,12.753 -183.063,12.795 -182.809,12.863M-182.597,-0.531C-182.597,-1.124 -183.063,-1.571 -183.657,-1.571C-184.23,-1.571 -184.719,-1.124 -184.719,-0.531C-184.719,0.043 -184.23,0.509 -183.657,0.509C-183.063,0.509 -182.597,0.043 -182.597,-0.531M-187.774,12.863C-187.838,11.059 -187.859,8.003 -187.859,3.703C-187.859,1.351 -187.859,-0.771 -187.774,-2.677C-188.05,-2.656 -188.368,-2.635 -188.665,-2.635C-188.92,-2.635 -189.217,-2.656 -189.493,-2.677C-189.408,-1.532 -189.408,-0.198 -189.408,1.373L-189.408,6.819C-189.408,9.467 -189.408,11.48 -189.493,12.863C-189.217,12.817 -188.941,12.795 -188.665,12.795C-188.368,12.795 -188.071,12.817 -187.774,12.863M-193.546,8.085C-193.546,10.928 -194.649,12.414 -196.687,12.414C-198.745,12.414 -199.849,10.885 -199.849,7.936C-199.849,5.008 -198.745,3.502 -196.708,3.502C-194.649,3.502 -193.546,5.072 -193.546,8.085M-191.764,7.958C-191.764,4.944 -193.801,2.886 -196.687,2.886C-199.487,2.886 -201.609,4.944 -201.609,7.958C-201.609,10.992 -199.551,13.053 -196.687,13.053C-193.864,13.053 -191.764,11.055 -191.764,7.958M-203.774,2.419C-203.774,4.584 -205.26,5.666 -208.23,5.666C-208.549,5.666 -208.846,5.644 -209.164,5.624L-209.164,3.755C-209.164,2.25 -209.121,0.828 -209.058,-0.509C-208.612,-0.551 -208.187,-0.573 -207.764,-0.573C-205.026,-0.573 -203.774,0.191 -203.774,2.419M-201.822,2.25C-201.822,-0.042 -203.456,-1.401 -206.469,-1.401C-207.742,-1.401 -208.888,-1.252 -209.928,-1.252C-210.225,-1.252 -210.543,-1.273 -210.946,-1.316C-210.861,0.891 -210.819,3.247 -210.819,5.793C-210.819,8.212 -210.861,10.568 -210.946,12.863C-210.586,12.795 -210.246,12.753 -209.906,12.753C-209.609,12.753 -209.334,12.795 -209.037,12.837C-209.121,11.353 -209.143,10.185 -209.143,9.336L-209.143,6.366C-208.484,6.409 -207.934,6.409 -207.572,6.409C-203.816,6.409 -201.822,4.88 -201.822,2.25" style="fill:rgb(35,31,32);"/>
        </g>
        <g transform="matrix(1,0,0,1,3.84,579.841)">
            <rect x="353.841" y="214.534" width="59.954" height="59.961" style="fill:rgb(179,34,22);"/>
        </g>
        <g transform="matrix(1,0,0,1,407.6725,844.4219)">
            <path d="M0,-40.133L-37.108,-44.051L-37.108,-43.979C-35.43,-43.274 -34.946,-41.252 -36.222,-39.966L0,-39.966L0,-40.133ZM-36.222,3.918L-36.389,3.918L-40.03,-41.162L-39.945,-41.162C-39.316,-39.407 -37.629,-38.966 -36.222,-39.966L-36.222,3.918ZM-16.006,-33.122C-16.166,-33.045 -16.321,-32.915 -16.443,-32.779C-16.621,-32.564 -17.196,-32.671 -17.523,-32.572C-17.724,-32.512 -17.817,-32.429 -17.831,-32.466C-17.731,-32.669 -17.662,-32.873 -17.495,-33.031C-17.132,-33.377 -16.035,-33.618 -16.006,-33.122M0,-35.847L-18.525,-35.847L-18.524,-33.287C-18.086,-33.521 -17.731,-33.726 -17.261,-33.86C-16.947,-33.948 -16.609,-34.044 -16.277,-34.011C-15.793,-33.961 -15.614,-33.637 -15.667,-33.298C-15.24,-33.527 -14.435,-33.654 -14.047,-33.301C-13.676,-32.961 -13.601,-32.406 -13.724,-31.945C-14.156,-32.406 -14.711,-32.525 -15.298,-32.237C-15.738,-32.022 -16.104,-31.643 -16.304,-31.199C-16.115,-30.982 -15.504,-31.155 -15.295,-31.264C-15.063,-31.384 -14.86,-31.576 -14.602,-31.859C-14.634,-31.44 -14.685,-31.051 -14.836,-30.846C-15.125,-30.452 -15.412,-30.373 -15.902,-30.202C-16.284,-30.07 -16.671,-29.884 -17.05,-29.5C-17.378,-29.065 -17.461,-28.31 -17.36,-27.67C-17.25,-26.965 -16.99,-26.222 -16.771,-25.493C-16.553,-24.763 -16.375,-24.044 -16.427,-23.387C-15.304,-23.206 -13.498,-24.457 -12.864,-24.969C-12.162,-25.536 -11.441,-26.196 -11.093,-26.837C-10.809,-27.36 -10.726,-28.423 -11.259,-29.253C-12.268,-30.823 -11.717,-33.36 -9.58,-34.005C-8.268,-34.387 -6.464,-34.021 -5.655,-32.559C-4.866,-31.134 -4.684,-29.529 -4.708,-27.848C-4.745,-25.272 -4.848,-23.669 -4.369,-21.747C-4.134,-20.806 -3.694,-19.937 -2.997,-19.138C-3.544,-18.489 -4.459,-18.935 -5.163,-19.535C-6.205,-20.425 -7.094,-22.434 -7.667,-25.662L-7.777,-25.263C-7.803,-23.319 -7.55,-21.832 -7.129,-20.095C-6.704,-18.338 -6.085,-17.316 -4.58,-16.165C-5.406,-15.419 -6.242,-15.74 -6.971,-16.296C-8.42,-17.399 -9.043,-18.654 -9.636,-21.186L-9.745,-21.044C-9.871,-19.558 -9.715,-18.085 -9.239,-16.749C-8.783,-15.472 -7.9,-14.248 -6.764,-13.319C-7.536,-12.622 -8.377,-13.083 -9.078,-13.591C-10.068,-14.308 -11.544,-15.695 -12.017,-18.411L-12.141,-18.306C-12.191,-16.75 -12.046,-15.352 -11.71,-14.15C-11.368,-12.922 -10.327,-11.461 -9.281,-10.759C-10.151,-10.023 -10.939,-10.475 -11.576,-10.965C-13.269,-12.267 -14.334,-14.108 -14.724,-16.552L-14.875,-16.476C-15.057,-13.82 -15.045,-10.907 -12.666,-9.208L-13.61,-8.612L-13.059,-7.674C-12.815,-7.261 -10.614,-8.389 -9.718,-7.674C-9.358,-7.387 -9.125,-6.924 -9.386,-6.339L-9.44,-6.362C-9.463,-6.775 -9.673,-6.993 -9.947,-7.107C-10.346,-7.272 -10.955,-7.228 -11.411,-6.706C-12.294,-6.108 -12.917,-6.533 -13.374,-5.935C-13.645,-5.581 -13.639,-5.27 -13.524,-4.92L-13.569,-4.892C-14.787,-5.529 -13.648,-6.708 -13.874,-7.103L-14.466,-8.142L-15.42,-7.565C-15.506,-8.261 -16.592,-11.965 -17.248,-12.215C-17.418,-11.971 -17.409,-11.323 -17.434,-10.876C-17.469,-10.252 -17.183,-9.796 -17.245,-8.925C-17.272,-8.545 -17.462,-8.023 -17.766,-7.501C-17.467,-7.306 -17.331,-6.999 -17.338,-6.642C-17.347,-6.241 -17.526,-5.778 -17.65,-5.401C-17.81,-4.913 -17.949,-4.544 -17.766,-4.544C-17.244,-4.816 -16.754,-4.864 -16.333,-4.742C-15.723,-4.567 -15.336,-3.986 -14.785,-3.701C-14.148,-3.373 -13.606,-3.431 -12.878,-3.154C-13.871,-2.774 -14.014,-1.758 -15.364,-1.968C-16.175,-2.093 -17.393,-3.628 -17.614,-3.501C-17.769,-3.046 -17.669,-2.516 -17.583,-1.8C-17.54,-1.444 -17.498,-1.039 -17.495,-0.575C-17.49,-0.112 -17.524,0.413 -17.625,1.01C-17.761,1.806 -18.049,2.828 -18.514,3.918L-18.502,3.918C-0.286,-2.171 -0.152,-27.675 0,-35.847M-8.291,-31.292C-8.666,-31.292 -8.972,-31.615 -8.972,-32.012C-8.972,-32.407 -8.666,-32.732 -8.291,-32.732C-7.916,-32.732 -7.61,-32.407 -7.61,-32.012C-7.61,-31.615 -7.916,-31.292 -8.291,-31.292M-9.541,-30.027C-9.167,-30.027 -8.861,-30.35 -8.861,-30.746C-8.861,-31.143 -9.167,-31.466 -9.541,-31.466C-9.916,-31.466 -10.222,-31.143 -10.222,-30.746C-10.222,-30.35 -9.916,-30.027 -9.541,-30.027M-7.232,-29.82C-6.857,-29.82 -6.552,-30.143 -6.552,-30.539C-6.552,-30.936 -6.857,-31.259 -7.232,-31.259C-7.607,-31.259 -7.913,-30.936 -7.913,-30.539C-7.913,-30.143 -7.607,-29.82 -7.232,-29.82M-8.323,-30.91C-8.459,-24.085 -11.746,-18.779 -18.52,-18.352L-18.521,-20.263C-13.037,-20.439 -8.937,-25.85 -8.435,-30.91L-8.323,-30.91ZM-21.042,-33.123C-20.883,-33.045 -20.728,-32.915 -20.606,-32.779C-20.428,-32.564 -19.853,-32.671 -19.525,-32.572C-19.325,-32.513 -19.231,-32.429 -19.218,-32.466C-19.317,-32.67 -19.387,-32.873 -19.554,-33.032C-19.917,-33.377 -21.013,-33.618 -21.042,-33.123M-18.535,3.918L-18.545,3.918C-19.008,2.83 -19.288,1.805 -19.423,1.01C-19.524,0.414 -19.558,-0.112 -19.554,-0.575C-19.551,-1.039 -19.508,-1.444 -19.465,-1.8C-19.38,-2.516 -19.279,-3.046 -19.434,-3.501C-19.656,-3.628 -20.874,-2.094 -21.685,-1.968C-23.034,-1.758 -23.178,-2.774 -24.17,-3.154C-23.442,-3.431 -22.9,-3.373 -22.264,-3.701C-21.712,-3.986 -21.326,-4.568 -20.716,-4.743C-20.294,-4.864 -19.805,-4.816 -19.283,-4.544C-19.099,-4.544 -19.238,-4.913 -19.398,-5.401C-19.522,-5.778 -19.702,-6.241 -19.71,-6.642C-19.717,-6.999 -19.582,-7.306 -19.283,-7.501C-19.586,-8.023 -19.776,-8.545 -19.804,-8.925C-19.866,-9.797 -19.579,-10.253 -19.614,-10.876C-19.64,-11.323 -19.63,-11.971 -19.801,-12.215C-20.457,-11.965 -21.542,-8.261 -21.629,-7.565L-22.582,-8.142L-23.175,-7.103C-23.4,-6.709 -22.262,-5.529 -23.479,-4.892L-23.524,-4.921C-23.41,-5.27 -23.404,-5.581 -23.674,-5.936C-24.131,-6.533 -24.754,-6.108 -25.638,-6.706C-26.093,-7.228 -26.703,-7.273 -27.101,-7.107C-27.375,-6.993 -27.585,-6.776 -27.608,-6.362L-27.662,-6.339C-27.923,-6.925 -27.69,-7.387 -27.33,-7.675C-26.434,-8.389 -24.233,-7.261 -23.99,-7.675L-23.438,-8.612L-24.382,-9.208C-22.003,-10.907 -21.991,-13.82 -22.173,-16.476L-22.325,-16.552C-22.714,-14.108 -23.78,-12.268 -25.473,-10.965C-26.109,-10.475 -26.897,-10.023 -27.767,-10.76C-26.721,-11.461 -25.681,-12.923 -25.337,-14.15C-25.002,-15.352 -24.857,-16.75 -24.908,-18.306L-25.031,-18.412C-25.504,-15.695 -26.981,-14.308 -27.97,-13.591C-28.671,-13.083 -29.513,-12.622 -30.285,-13.32C-29.148,-14.248 -28.266,-15.472 -27.81,-16.75C-27.333,-18.085 -27.177,-19.559 -27.304,-21.044L-27.413,-21.186C-28.005,-18.654 -28.628,-17.399 -30.078,-16.296C-30.807,-15.741 -31.642,-15.419 -32.469,-16.165C-30.963,-17.316 -30.344,-18.338 -29.919,-20.096C-29.499,-21.832 -29.246,-23.319 -29.271,-25.264L-29.381,-25.662C-29.954,-22.434 -30.844,-20.425 -31.886,-19.535C-32.589,-18.936 -33.505,-18.489 -34.052,-19.138C-33.355,-19.937 -32.915,-20.806 -32.68,-21.747C-32.201,-23.669 -32.304,-25.272 -32.341,-27.848C-32.365,-29.529 -32.183,-31.134 -31.394,-32.559C-30.584,-34.021 -28.781,-34.388 -27.469,-34.005C-25.332,-33.36 -24.781,-30.824 -25.79,-29.253C-26.323,-28.423 -26.239,-27.36 -25.956,-26.837C-25.607,-26.196 -24.886,-25.536 -24.184,-24.97C-23.55,-24.458 -21.745,-23.206 -20.621,-23.387C-20.673,-24.044 -20.495,-24.763 -20.277,-25.493C-20.059,-26.222 -19.799,-26.965 -19.688,-27.67C-19.588,-28.31 -19.67,-29.065 -19.998,-29.5C-20.377,-29.885 -20.765,-30.07 -21.146,-30.202C-21.637,-30.374 -21.924,-30.453 -22.212,-30.846C-22.364,-31.052 -22.414,-31.44 -22.447,-31.859C-22.188,-31.576 -21.985,-31.384 -21.754,-31.265C-21.544,-31.155 -20.934,-30.982 -20.744,-31.199C-20.944,-31.643 -21.311,-32.023 -21.75,-32.237C-22.337,-32.525 -22.893,-32.406 -23.325,-31.945C-23.448,-32.406 -23.372,-32.961 -23,-33.301C-22.614,-33.654 -21.809,-33.527 -21.381,-33.298C-21.434,-33.637 -21.255,-33.961 -20.771,-34.011C-20.439,-34.044 -20.101,-33.949 -19.788,-33.86C-19.317,-33.726 -18.962,-33.521 -18.524,-33.287L-18.535,3.918ZM-28.757,-31.292C-28.382,-31.292 -28.077,-31.615 -28.077,-32.012C-28.077,-32.407 -28.382,-32.732 -28.757,-32.732C-29.133,-32.732 -29.438,-32.407 -29.438,-32.012C-29.438,-31.615 -29.133,-31.292 -28.757,-31.292M-27.507,-30.027C-27.882,-30.027 -28.188,-30.35 -28.188,-30.747C-28.188,-31.143 -27.882,-31.466 -27.507,-31.466C-27.132,-31.466 -26.826,-31.143 -26.826,-30.747C-26.826,-30.35 -27.132,-30.027 -27.507,-30.027M-29.816,-29.82C-30.191,-29.82 -30.497,-30.143 -30.497,-30.539C-30.497,-30.936 -30.191,-31.26 -29.816,-31.26C-29.441,-31.26 -29.136,-30.936 -29.136,-30.539C-29.136,-30.143 -29.441,-29.82 -29.816,-29.82M-28.725,-30.91C-28.589,-24.085 -25.303,-18.78 -18.528,-18.352L-18.528,-20.263C-24.012,-20.439 -28.112,-25.85 -28.613,-30.91L-28.725,-30.91Z" style="fill:rgb(253,204,154);"/>
        </g>
    </g>
</svg>
